<?xml version="1.0" standalone="no"?><!DOCTYPE svg PUBLIC "-//W3C//DTD SVG 1.1//EN" "http://www.w3.org/Graphics/SVG/1.1/DTD/svg11.dtd"><svg class="icon" width="200px" height="200.00px" viewBox="0 0 1024 1024" version="1.1" xmlns="http://www.w3.org/2000/svg"><path d="M805.1 513.6c28.3-41.4 46.7-82.6 52.6-120.7 6.3-40.3-1.5-76.3-22.7-104.1-27.1-35.5-73-54.3-132.7-54.3-13.3 0-27.2 1-41.6 2.8C622.3 170 571 133.1 514.8 133.1S407.3 170 368.9 237.4c-14.3-1.8-28.2-2.8-41.6-2.8-59.7 0-105.6 18.8-132.7 54.3-21.2 27.7-29 63.7-22.7 104.1 6 38 24.3 79.3 52.6 120.7-28.3 41.3-46.7 82.6-52.6 120.7-6.3 40.3 1.5 76.3 22.7 104.1 27.1 35.5 73 54.3 132.7 54.3 13.3 0 27.2-1 41.6-2.8 38.4 67.4 89.7 104.2 145.9 104.2s107.5-36.7 145.9-104c14.4 1.9 28.3 2.9 41.6 2.9 59.7 0 105.6-19 132.7-54.5 21.2-27.7 29-63.8 22.7-104.2-6-38.1-24.3-79.4-52.6-120.8z m-27.3-181c9.1 11.9 12 28.5 8.8 49.2-3.4 21.5-13.4 46.4-29 72.5-12.5-13.6-26-27.1-40.4-40.3-5.4-38-14-74.1-25.4-107.1 3.6-0.2 7.1-0.3 10.5-0.3 35.9 0 62.7 9.2 75.5 26zM598.7 702.2c9.9-6.1 19.8-12.4 29.5-19-2.7 8.6-5.6 17.1-8.7 25.2-6.8-1.8-13.8-3.9-20.8-6.2zM410 708.3c-3.1-8.1-6-16.4-8.6-25 9.7 6.5 19.5 12.8 29.3 18.8-7 2.3-13.9 4.4-20.7 6.2z m20.7-383.2c-9.9 6-19.7 12.3-29.4 18.9 2.7-8.6 5.6-17 8.7-25.1 6.8 1.8 13.8 3.9 20.7 6.2z m2.5 292.8c-18.5-12.9-36.1-26.4-52.7-40.5-2.1-20.8-3.1-42.1-3.1-63.8 0-21.7 1-43 3.1-63.8 16.6-14 34.2-27.6 52.7-40.5 26.8-18.6 54.2-35.1 81.5-49 27.3 14 54.8 30.4 81.6 49.1 18.5 12.9 36.1 26.4 52.7 40.5 2 20.7 3.1 42.1 3.1 63.7 0 21.7-1 43-3.1 63.8-16.6 14-34.2 27.6-52.7 40.5-26.8 18.6-54.3 35.1-81.6 49.1-27.3-14.1-54.7-30.5-81.5-49.1z m186.4-299c3.1 8.1 6 16.5 8.7 25.1-9.7-6.6-19.5-12.9-29.4-18.9 6.9-2.3 13.8-4.4 20.7-6.2zM514.8 205.1c24.2 0 49.2 17.4 71.3 48.7-23.3 7.1-47.2 16.1-71.3 26.8-24-10.7-47.9-19.7-71.3-26.8 22.1-31.3 47.1-48.7 71.3-48.7zM243 381.8c-3.3-20.8-0.3-37.3 8.8-49.2 12.8-16.8 39.6-26 75.5-26 3.5 0 7 0.1 10.5 0.3-11.4 33-20 69.1-25.4 107.1-14.4 13.2-27.9 26.7-40.4 40.3-15.6-26.1-25.6-51-29-72.5z m8.8 312.8c-9.1-11.9-12-28.5-8.8-49.2 3.4-21.5 13.4-46.4 28.9-72.5 12.5 13.7 26 27.2 40.4 40.4 5.4 38 14 74.1 25.4 107-3.6 0.2-7.1 0.3-10.5 0.3-35.8 0.1-62.6-9.2-75.4-26z m263 127.5c-24.2 0-49.2-17.4-71.3-48.7 23.3-7.1 47.2-16.1 71.2-26.8 24 10.7 47.9 19.8 71.3 26.9-22 31.2-47 48.6-71.2 48.6z m263-127.3C765 711.6 738.2 721 702.3 721c-3.5 0-7-0.2-10.6-0.4 11.4-33 20-69.2 25.5-107.3 14.4-13.2 27.9-26.7 40.4-40.4 15.6 26.1 25.6 51 29 72.6 3.2 20.8 0.3 37.4-8.8 49.3z"  /><path d="M444.5 513.6m-30.5 0a30.5 30.5 0 1 0 61 0 30.5 30.5 0 1 0-61 0Z"  /><path d="M575.5 513.6m-25.5 0a25.5 25.5 0 1 0 51 0 25.5 25.5 0 1 0-51 0Z"  /></svg>