<?xml version="1.0" standalone="no"?><!DOCTYPE svg PUBLIC "-//W3C//DTD SVG 1.1//EN" "http://www.w3.org/Graphics/SVG/1.1/DTD/svg11.dtd"><svg class="icon" width="200px" height="200.00px" viewBox="0 0 1024 1024" version="1.1" xmlns="http://www.w3.org/2000/svg"><path d="M341.333333 704a42.666667 42.666667 0 1 0 42.666667 42.666667 42.666667 42.666667 0 0 0-42.666667-42.666667zM512 85.333333C341.333333 85.333333 170.666667 143.786667 170.666667 256v512c0 112.213333 170.666667 170.666667 341.333333 170.666667s341.333333-58.453333 341.333333-170.666667V256c0-112.213333-170.666667-170.666667-341.333333-170.666667z m256 682.666667c0 30.293333-97.28 85.333333-256 85.333333s-256-55.04-256-85.333333v-139.52A561.493333 561.493333 0 0 0 512 682.666667a561.493333 561.493333 0 0 0 256-54.186667z m0-256c0 30.293333-97.28 85.333333-256 85.333333s-256-55.04-256-85.333333V372.48A561.493333 561.493333 0 0 0 512 426.666667a561.493333 561.493333 0 0 0 256-54.186667z m-256-170.666667C353.28 341.333333 256 286.293333 256 256s97.28-85.333333 256-85.333333 256 55.04 256 85.333333-97.28 85.333333-256 85.333333z m-170.666667 106.666667a42.666667 42.666667 0 1 0 42.666667 42.666667 42.666667 42.666667 0 0 0-42.666667-42.666667z" /></svg>