<?xml version="1.0" standalone="no"?><!DOCTYPE svg PUBLIC "-//W3C//DTD SVG 1.1//EN" "http://www.w3.org/Graphics/SVG/1.1/DTD/svg11.dtd"><svg class="icon" width="200px" height="200.00px" viewBox="0 0 1024 1024" version="1.1" xmlns="http://www.w3.org/2000/svg"><path d="M378.9 459.1c53 0 96-43.5 96-97.1 0-53.6-43-97.1-96-97.1s-96 43.5-96 97.1c0.1 53.7 43 97.1 96 97.1z m0-154.1c30.9 0 56 25.6 56 57.1s-25.1 57.1-56 57.1-56-25.6-56-57.1 25.2-57.1 56-57.1zM378.7 490.3c-123.5 0-224 101.8-224 226.7 0 62.5 112 93.7 224 93.7s224-31.2 224-93.7c0-125-100.6-226.7-224-226.7z m184 226.6c0 1.5 0 5.5-6.9 12.1-5.4 5.2-16.2 13-37.1 20.7-35.8 13.3-86.8 20.9-140.1 20.9s-104.3-7.6-140.1-20.9c-20.8-7.7-31.6-15.5-37.1-20.7-6.9-6.6-6.9-10.6-6.9-12.1 0-25.2 4.9-49.6 14.5-72.7 9.3-22.2 22.7-42.2 39.6-59.4 34.8-35.2 80.9-54.6 129.9-54.6s95.1 19.4 129.9 54.6c17 17.2 30.3 37.2 39.6 59.4 9.8 23.1 14.7 47.6 14.7 72.7z"  /><path d="M666.5 392.6c-65 0-126.5 32-164.7 85.5-6.4 9-4.3 21.5 4.7 27.9 9 6.4 21.5 4.3 27.9-4.7 30.7-43 80-68.7 132.1-68.7 89.8 0 162.8 74 162.8 165 0 31.1-73 56.5-162.8 56.5-11 0-20 9-20 20s9 20 20 20c50.2 0 97.3-7.2 132.7-20.4 58-21.6 70.2-53.3 70.2-76.1 0-113.1-91-205-202.9-205zM666.5 381.5c46.3 0 84-37.7 84-84s-37.7-84-84-84-84 37.7-84 84 37.7 84 84 84z m0-128.1c24.3 0 44 19.8 44 44s-19.8 44-44 44c-24.3 0-44-19.8-44-44s19.7-44 44-44z"  /></svg>