<?xml version="1.0" standalone="no"?><!DOCTYPE svg PUBLIC "-//W3C//DTD SVG 1.1//EN" "http://www.w3.org/Graphics/SVG/1.1/DTD/svg11.dtd"><svg class="icon" width="200px" height="200.00px" viewBox="0 0 1024 1024" version="1.1" xmlns="http://www.w3.org/2000/svg"><path d="M855.026235 317.488004c0.398033 63.969554-15.921311 110.25508-36.960187 155.062199-48.076674 102.351286-113.553066 193.330208-186.449927 279.02098-29.084824 34.117095-60.472552 66.585198-92.372036 98.228804-23.68295 23.483934-29.312271 22.972178-54.018735 0-75.341919-70.736111-138.799717-151.394611-197.026226-236.37461a1096.153847 1096.153847 0 0 1-89.273067-157.962152C131.885965 311.261635 193.893786 168.765899 278.077719 91.291661c188.667538-173.684447 496.915496-87.680935 564.922239 158.417047 7.249883 26.270164 9.638079 53.848149 12.026277 67.779296zM511.182774 791.97151c5.174426-5.316581 8.955738-8.785152 12.253723-12.651756 24.223138-28.430913 49.014894-56.577517 72.299812-85.832926 61.695081-77.55953 119.58042-157.59255 161.715033-247.974423 24.308431-52.142294 35.794519-105.56398 20.470257-162.539529-28.430913-105.336532-95.584729-173.911894-200.835969-199.215407-106.900233-25.587822-200.153627 4.804824-272.936764 87.879952-48.616861 55.468711-72.441966 121.712738-60.984308 195.604681 5.117564 32.979859 18.451662 65.590116 32.979859 96.011193 44.693395 93.822013 106.928663 176.27166 172.433487 256.190956 19.958501 24.422154 41.196393 47.820796 62.60487 72.527259z"  /><path d="M148.916082 885.679799c17.570304 9.609649 30.563231 18.195784 44.664964 24.166276 48.815877 20.583981 100.446415 30.22206 152.645571 36.960187a1309.58471 1309.58471 0 0 0 331.532876 0c52.654051-6.681265 104.767914-16.404637 153.981824-37.244496 13.988009-5.91363 26.753489-14.727213 40.059156-22.204543v-5.515597c-10.434145-6.766557-20.328103-14.64192-31.444589-19.901639-42.134613-20.527119-87.624074-29.539719-133.426275-37.187634-7.47733-1.25096-15.068384-1.904871-22.43199-3.553865a33.548477 33.548477 0 0 1-26.952505-36.419999c2.103888-17.058548 16.717377-30.904402 34.628852-28.715222 68.376346 8.301827 135.643885 21.408477 196.372315 56.264777a133.625291 133.625291 0 0 1 30.790679 24.820187c26.753489 28.9711 26.099578 65.590116-0.767635 94.447492-19.674192 20.896721-44.551241 33.292599-70.70768 43.641452-57.31672 22.403559-117.391239 32.922997-178.148101 39.803278a1389.902039 1389.902039 0 0 1-289.312969 2.700936c-69.371427-6.53911-138.373253-16.433068-203.394751-42.873816a244.505851 244.505851 0 0 1-62.348992-35.737658c-39.803278-32.610257-39.803278-79.862434 0.796065-111.392317a235.976577 235.976577 0 0 1 71.816486-38.722903c43.556159-13.760562 88.732879-22.74473 133.625291-32.07007 21.266323-4.463653 35.965105 4.065621 42.134613 20.072225 7.846932 20.356534-5.089133 40.201311-28.004449 44.977704-38.381732 7.960656-76.763465 15.89288-114.718734 25.786838-16.717377 4.34993-32.411241 12.964496-48.076674 20.640843-6.85185 3.297986-12.708618 9.183185-23.313348 17.257564zM637.330735 336.991611c0 66.528336-57.743184 122.906837-125.380326 122.594096-68.5185-0.31274-124.669553-55.923606-124.413675-123.219576s56.861826-122.650958 125.295033-122.423511 124.498968 55.610866 124.498968 123.048991zM511.893547 278.679808c-32.38281 0.199016-59.16473 26.78192-58.994145 58.482388s27.151522 58.084355 59.47747 58.084355a59.193161 59.193161 0 0 0 59.562763-59.392177c-0.511756-31.871053-27.378969-57.515737-60.046088-57.174566z"  /></svg>